<?xml version="1.0" encoding="UTF-8"?>
<svg width="100" height="100" viewBox="0 0 100 100" fill="none" xmlns="http://www.w3.org/2000/svg">
  <path d="M20 10L30 20L20 30L10 20L20 10Z" fill="black"/>
  <path d="M50 10L60 20L50 30L40 20L50 10Z" fill="black"/>
  <path d="M80 10L90 20L80 30L70 20L80 10Z" fill="black"/>
  <path d="M20 40L30 50L20 60L10 50L20 40Z" fill="black"/>
  <path d="M50 40L60 50L50 60L40 50L50 40Z" fill="black"/>
  <path d="M80 40L90 50L80 60L70 50L80 40Z" fill="black"/>
  <path d="M20 70L30 80L20 90L10 80L20 70Z" fill="black"/>
  <path d="M50 70L60 80L50 90L40 80L50 70Z" fill="black"/>
  <path d="M80 70L90 80L80 90L70 80L80 70Z" fill="black"/>
</svg> 