<?xml version="1.0" encoding="UTF-8"?>
<svg width="100" height="100" viewBox="0 0 100 100" fill="none" xmlns="http://www.w3.org/2000/svg">
  <path d="M20 10L25 15H15L20 10Z" fill="black"/>
  <path d="M20 30L15 25H25L20 30Z" fill="black"/>
  <path d="M10 20L15 15V25L10 20Z" fill="black"/>
  <path d="M30 20L25 15V25L30 20Z" fill="black"/>
  <path d="M50 10L55 15H45L50 10Z" fill="black"/>
  <path d="M50 30L45 25H55L50 30Z" fill="black"/>
  <path d="M40 20L45 15V25L40 20Z" fill="black"/>
  <path d="M60 20L55 15V25L60 20Z" fill="black"/>
  <path d="M80 10L85 15H75L80 10Z" fill="black"/>
  <path d="M80 30L75 25H85L80 30Z" fill="black"/>
  <path d="M70 20L75 15V25L70 20Z" fill="black"/>
  <path d="M90 20L85 15V25L90 20Z" fill="black"/>
  <path d="M20 40L25 45H15L20 40Z" fill="black"/>
  <path d="M20 60L15 55H25L20 60Z" fill="black"/>
  <path d="M10 50L15 45V55L10 50Z" fill="black"/>
  <path d="M30 50L25 45V55L30 50Z" fill="black"/>
  <path d="M50 40L55 45H45L50 40Z" fill="black"/>
  <path d="M50 60L45 55H55L50 60Z" fill="black"/>
  <path d="M40 50L45 45V55L40 50Z" fill="black"/>
  <path d="M60 50L55 45V55L60 50Z" fill="black"/>
  <path d="M80 40L85 45H75L80 40Z" fill="black"/>
  <path d="M80 60L75 55H85L80 60Z" fill="black"/>
  <path d="M70 50L75 45V55L70 50Z" fill="black"/>
  <path d="M90 50L85 45V55L90 50Z" fill="black"/>
  <path d="M20 70L25 75H15L20 70Z" fill="black"/>
  <path d="M20 90L15 85H25L20 90Z" fill="black"/>
  <path d="M10 80L15 75V85L10 80Z" fill="black"/>
  <path d="M30 80L25 75V85L30 80Z" fill="black"/>
  <path d="M50 70L55 75H45L50 70Z" fill="black"/>
  <path d="M50 90L45 85H55L50 90Z" fill="black"/>
  <path d="M40 80L45 75V85L40 80Z" fill="black"/>
  <path d="M60 80L55 75V85L60 80Z" fill="black"/>
  <path d="M80 70L85 75H75L80 70Z" fill="black"/>
  <path d="M80 90L75 85H85L80 90Z" fill="black"/>
  <path d="M70 80L75 75V85L70 80Z" fill="black"/>
  <path d="M90 80L85 75V85L90 80Z" fill="black"/>
</svg> 